<?xml version="1.0" encoding="utf-8"?>
<!-- Generator: Adobe Illustrator 21.0.0, SVG Export Plug-In . SVG Version: 6.00 Build 0)  -->
<svg version="1.1" id="katman_1" xmlns="http://www.w3.org/2000/svg" xmlns:xlink="http://www.w3.org/1999/xlink" x="0px" y="0px"
	 viewBox="0 0 2052.2 2369.7" style="enable-background:new 0 0 2052.2 2369.7;" xml:space="preserve">
<style type="text/css">
	.st0{fill:#D1D0D4;}
	.st1{fill:#B2B1B8;}
	.st2{fill:#646470;}
	.st3{fill:#548636;}
	.st4{fill:#385924;}
</style>
<polygon class="st0" points="1026.1,0 0,592.4 0,1777.2 1026.1,2369.7 2052.2,1777.2 2052.2,592.4 "/>
<polygon class="st1" points="172.3,672.3 1052.1,167.3 1052.1,511.7 470.2,846.9 "/>
<polygon class="st2" points="1052.1,167.3 1901.7,687.5 1624.6,850.4 1052.1,515.2 "/>
<polygon class="st2" points="172.3,672.3 470.2,846.9 470.2,1519.6 172.3,1684.8 "/>
<polygon class="st2" points="1052.1,2192.2 1052.1,1843.1 1623.5,1511.4 1910.9,1677.8 "/>
<polygon class="st1" points="172.3,1684.8 470.2,1519.6 1052.1,1843.1 1052.1,2192.2 "/>
<polygon class="st3" points="470.2,846.9 1052.1,511.7 1052.1,846.9 761.1,1012.2 "/>
<polygon class="st4" points="1048.3,513.6 1626.9,847.6 1336.3,1014.6 1049,846.5 "/>
<polygon class="st3" points="761.1,1345 470.2,1519.6 1052.1,1843.1 1049.7,1511.4 "/>
<polygon class="st4" points="470.2,846.9 761.1,1012.2 761.1,1345 470.2,1519.6 "/>
<polyline class="st4" points="1339.8,1683.3 1627.8,1513.5 1339.5,1349.6 1049.4,1516.3 1051.1,1851.5 1055.4,1849 "/>
</svg>
